<mxfile host="Electron" modified="2024-01-09T00:27:36.559Z" agent="Mozilla/5.0 (X11; Linux x86_64) AppleWebKit/537.36 (KHTML, like Gecko) draw.io/22.1.16 Chrome/120.0.6099.109 Electron/28.1.1 Safari/537.36" etag="b6QJQOQZ9LVyFGkoXyFY" version="22.1.16" type="device">
  <diagram name="Page-1" id="3GinpwUumfZcRF2tVcDU">
    <mxGraphModel dx="1395" dy="850" grid="1" gridSize="10" guides="1" tooltips="1" connect="1" arrows="1" fold="1" page="1" pageScale="1" pageWidth="850" pageHeight="1100" math="0" shadow="0">
      <root>
        <mxCell id="0" />
        <mxCell id="1" parent="0" />
        <mxCell id="yZ550P0sdeZeeuUyea0I-1" value="" style="rounded=0;whiteSpace=wrap;html=1;fillColor=#F8F9F7;strokeColor=#000000;" parent="1" vertex="1">
          <mxGeometry x="-260" y="400" width="1260" height="380" as="geometry" />
        </mxCell>
        <mxCell id="yZ550P0sdeZeeuUyea0I-2" value="" style="rounded=0;whiteSpace=wrap;html=1;fontFamily=Comic Neue;fontSource=https%3A%2F%2Ffonts.googleapis.com%2Fcss%3Ffamily%3DComic%2BNeue;shadow=1;dashed=1;strokeColor=#000000;" parent="1" vertex="1">
          <mxGeometry x="-242.87" y="420" width="510" height="290" as="geometry" />
        </mxCell>
        <mxCell id="yZ550P0sdeZeeuUyea0I-3" value="&lt;font style=&quot;font-size: 16px;&quot; data-font-src=&quot;https://fonts.googleapis.com/css?family=Comic+Neue&quot; face=&quot;Comic Neue&quot;&gt;Drugbank&lt;/font&gt;" style="shape=dataStorage;whiteSpace=wrap;html=1;fixedSize=1;direction=west;fillColor=#cce5ff;strokeColor=#000000;shadow=1;" parent="1" vertex="1">
          <mxGeometry x="-224.87" y="443" width="120" height="80" as="geometry" />
        </mxCell>
        <mxCell id="yZ550P0sdeZeeuUyea0I-4" value="&lt;font style=&quot;font-size: 16px;&quot; data-font-src=&quot;https://fonts.googleapis.com/css?family=Comic+Neue&quot; face=&quot;Comic Neue&quot;&gt;ChEMBL&lt;/font&gt;" style="shape=dataStorage;whiteSpace=wrap;html=1;fixedSize=1;direction=west;fillColor=#cce5ff;strokeColor=#000000;shadow=1;" parent="1" vertex="1">
          <mxGeometry x="-224.87" y="546" width="120" height="80" as="geometry" />
        </mxCell>
        <mxCell id="yZ550P0sdeZeeuUyea0I-5" value="&lt;font style=&quot;font-size: 16px;&quot; face=&quot;Comic Neue&quot;&gt;SMILES - Drug Indication Pairs&lt;/font&gt;" style="rounded=0;whiteSpace=wrap;html=1;fillColor=#cce5ff;strokeColor=#000000;shadow=1;" parent="1" vertex="1">
          <mxGeometry x="89.13" y="489" width="160" height="90" as="geometry" />
        </mxCell>
        <mxCell id="yZ550P0sdeZeeuUyea0I-6" value="" style="endArrow=classic;html=1;rounded=1;exitX=0;exitY=0.5;exitDx=0;exitDy=0;fontSize=13;strokeWidth=2;curved=0;strokeColor=#000000;shadow=0;" parent="1" source="yZ550P0sdeZeeuUyea0I-3" edge="1">
          <mxGeometry width="50" height="50" relative="1" as="geometry">
            <mxPoint x="399.13" y="386" as="sourcePoint" />
            <mxPoint x="89.13" y="519" as="targetPoint" />
            <Array as="points">
              <mxPoint x="-10.869999999999997" y="483" />
              <mxPoint x="19.130000000000003" y="483" />
              <mxPoint x="19.130000000000003" y="519" />
              <mxPoint x="59.129999999999995" y="519" />
            </Array>
          </mxGeometry>
        </mxCell>
        <mxCell id="yZ550P0sdeZeeuUyea0I-7" value="&lt;font style=&quot;font-size: 14px;&quot; face=&quot;Comic Neue&quot;&gt;Data Access Request&lt;/font&gt;" style="text;html=1;strokeColor=none;fillColor=none;align=center;verticalAlign=middle;whiteSpace=wrap;rounded=0;shadow=0;" parent="1" vertex="1">
          <mxGeometry x="-100.87" y="453" width="130" height="30" as="geometry" />
        </mxCell>
        <mxCell id="yZ550P0sdeZeeuUyea0I-8" value="&lt;font style=&quot;font-size: 14px;&quot; face=&quot;Comic Neue&quot;&gt;PostgreSQL Processing&lt;/font&gt;" style="text;html=1;strokeColor=none;fillColor=none;align=center;verticalAlign=middle;whiteSpace=wrap;rounded=0;shadow=0;" parent="1" vertex="1">
          <mxGeometry x="-100.87" y="586" width="140" height="30" as="geometry" />
        </mxCell>
        <mxCell id="yZ550P0sdeZeeuUyea0I-9" value="" style="endArrow=classic;html=1;rounded=1;exitX=0;exitY=0.5;exitDx=0;exitDy=0;strokeWidth=2;curved=0;strokeColor=#000000;shadow=0;" parent="1" source="yZ550P0sdeZeeuUyea0I-4" edge="1">
          <mxGeometry width="50" height="50" relative="1" as="geometry">
            <mxPoint x="-104.87" y="586" as="sourcePoint" />
            <mxPoint x="89.13" y="546" as="targetPoint" />
            <Array as="points">
              <mxPoint x="16.130000000000003" y="586" />
              <mxPoint x="16.130000000000003" y="546" />
            </Array>
          </mxGeometry>
        </mxCell>
        <mxCell id="yZ550P0sdeZeeuUyea0I-10" value="" style="rounded=0;whiteSpace=wrap;html=1;fontFamily=Comic Neue;fontSource=https%3A%2F%2Ffonts.googleapis.com%2Fcss%3Ffamily%3DComic%2BNeue;shadow=1;dashed=1;strokeColor=#000000;" parent="1" vertex="1">
          <mxGeometry x="354.63" y="420" width="628.25" height="290" as="geometry" />
        </mxCell>
        <mxCell id="yZ550P0sdeZeeuUyea0I-11" value="" style="shape=flexArrow;endArrow=classic;html=1;rounded=0;entryX=0;entryY=0.5;entryDx=0;entryDy=0;fontFamily=Comic Neue;fontSource=https%3A%2F%2Ffonts.googleapis.com%2Fcss%3Ffamily%3DComic%2BNeue;fillColor=#eeeeee;strokeColor=#000000;shadow=1;" parent="1" edge="1">
          <mxGeometry width="50" height="50" relative="1" as="geometry">
            <mxPoint x="274.13" y="564.76" as="sourcePoint" />
            <mxPoint x="344.13" y="564.76" as="targetPoint" />
          </mxGeometry>
        </mxCell>
        <mxCell id="yZ550P0sdeZeeuUyea0I-12" value="&lt;font style=&quot;font-size: 14px;&quot;&gt;CC(=O)OC1=CC=CC=C1C(=O)O&amp;nbsp;&lt;/font&gt;" style="rounded=0;whiteSpace=wrap;html=1;fontFamily=Comic Neue;fontSource=https%3A%2F%2Ffonts.googleapis.com%2Fcss%3Ffamily%3DComic%2BNeue;fillColor=#FFF3A6;strokeColor=#000000;shadow=1;" parent="1" vertex="1">
          <mxGeometry x="369.25" y="443" width="200" height="75" as="geometry" />
        </mxCell>
        <mxCell id="yZ550P0sdeZeeuUyea0I-13" value="&lt;font style=&quot;font-size: 15px;&quot;&gt;MolT5&lt;/font&gt;" style="rounded=0;whiteSpace=wrap;html=1;fontFamily=Comic Neue;fontSource=https%3A%2F%2Ffonts.googleapis.com%2Fcss%3Ffamily%3DComic%2BNeue;fillColor=#ACEBBA;strokeColor=#000000;shadow=1;fontStyle=0" parent="1" vertex="1">
          <mxGeometry x="608.25" y="443" width="120" height="75" as="geometry" />
        </mxCell>
        <mxCell id="yZ550P0sdeZeeuUyea0I-14" value="&lt;font style=&quot;font-size: 16px;&quot;&gt;A list of medical conditions: angina pectoris, arthritis, back pain, etc.&lt;/font&gt;" style="rounded=0;whiteSpace=wrap;html=1;fontFamily=Comic Neue;fontSource=https%3A%2F%2Ffonts.googleapis.com%2Fcss%3Ffamily%3DComic%2BNeue;shadow=1;fillColor=#eeeeee;strokeColor=#000000;" parent="1" vertex="1">
          <mxGeometry x="768.25" y="443" width="200" height="75" as="geometry" />
        </mxCell>
        <mxCell id="yZ550P0sdeZeeuUyea0I-15" value="" style="endArrow=classic;startArrow=classic;html=1;rounded=0;exitX=1;exitY=0.25;exitDx=0;exitDy=0;entryX=0;entryY=0.25;entryDx=0;entryDy=0;strokeColor=#000000;shadow=0;" parent="1" source="yZ550P0sdeZeeuUyea0I-12" target="yZ550P0sdeZeeuUyea0I-13" edge="1">
          <mxGeometry width="50" height="50" relative="1" as="geometry">
            <mxPoint x="658.25" y="531" as="sourcePoint" />
            <mxPoint x="708.25" y="481" as="targetPoint" />
          </mxGeometry>
        </mxCell>
        <mxCell id="yZ550P0sdeZeeuUyea0I-16" value="" style="endArrow=classic;startArrow=classic;html=1;rounded=0;exitX=1;exitY=0.75;exitDx=0;exitDy=0;entryX=0;entryY=0.75;entryDx=0;entryDy=0;strokeColor=#000000;shadow=0;" parent="1" source="yZ550P0sdeZeeuUyea0I-12" target="yZ550P0sdeZeeuUyea0I-13" edge="1">
          <mxGeometry width="50" height="50" relative="1" as="geometry">
            <mxPoint x="543.25" y="471" as="sourcePoint" />
            <mxPoint x="563.25" y="471" as="targetPoint" />
          </mxGeometry>
        </mxCell>
        <mxCell id="yZ550P0sdeZeeuUyea0I-17" value="" style="endArrow=classic;startArrow=classic;html=1;rounded=0;exitX=1;exitY=0.75;exitDx=0;exitDy=0;entryX=0;entryY=0.75;entryDx=0;entryDy=0;strokeColor=#000000;shadow=0;" parent="1" source="yZ550P0sdeZeeuUyea0I-13" target="yZ550P0sdeZeeuUyea0I-14" edge="1">
          <mxGeometry width="50" height="50" relative="1" as="geometry">
            <mxPoint x="553.25" y="481" as="sourcePoint" />
            <mxPoint x="573.25" y="481" as="targetPoint" />
          </mxGeometry>
        </mxCell>
        <mxCell id="yZ550P0sdeZeeuUyea0I-18" value="" style="endArrow=classic;startArrow=classic;html=1;rounded=0;exitX=0;exitY=0.25;exitDx=0;exitDy=0;entryX=1;entryY=0.25;entryDx=0;entryDy=0;strokeColor=#000000;shadow=0;" parent="1" source="yZ550P0sdeZeeuUyea0I-14" target="yZ550P0sdeZeeuUyea0I-13" edge="1">
          <mxGeometry width="50" height="50" relative="1" as="geometry">
            <mxPoint x="563.25" y="491" as="sourcePoint" />
            <mxPoint x="583.25" y="491" as="targetPoint" />
          </mxGeometry>
        </mxCell>
        <mxCell id="yZ550P0sdeZeeuUyea0I-19" value="" style="endArrow=classic;html=1;rounded=0;exitX=0.5;exitY=1;exitDx=0;exitDy=0;entryX=0.5;entryY=0;entryDx=0;entryDy=0;strokeColor=#000000;shadow=0;" parent="1" source="yZ550P0sdeZeeuUyea0I-13" target="yZ550P0sdeZeeuUyea0I-20" edge="1">
          <mxGeometry width="50" height="50" relative="1" as="geometry">
            <mxPoint x="438.25" y="611" as="sourcePoint" />
            <mxPoint x="488.25" y="561" as="targetPoint" />
          </mxGeometry>
        </mxCell>
        <mxCell id="yZ550P0sdeZeeuUyea0I-20" value="&lt;font style=&quot;font-size: 16px;&quot; face=&quot;Comic Neue&quot;&gt;MoLT5 pretraining using a custom tokenizer and re-evaluation of the resulting model.&lt;/font&gt;" style="rounded=0;whiteSpace=wrap;html=1;shadow=1;fillColor=#eeeeee;strokeColor=#000000;" parent="1" vertex="1">
          <mxGeometry x="448.25" y="551" width="440" height="90" as="geometry" />
        </mxCell>
        <mxCell id="yZ550P0sdeZeeuUyea0I-21" value="&lt;font style=&quot;font-size: 16px;&quot; face=&quot;Comic Neue&quot;&gt;MolT5 Experiments&lt;/font&gt;" style="rounded=0;whiteSpace=wrap;html=1;shadow=1;strokeColor=#000000;" parent="1" vertex="1">
          <mxGeometry x="571.75" y="665" width="194" height="30" as="geometry" />
        </mxCell>
        <mxCell id="yZ550P0sdeZeeuUyea0I-22" value="&lt;font style=&quot;font-size: 16px;&quot; face=&quot;Comic Neue&quot;&gt;Pipeline for LLM Experiments&lt;/font&gt;" style="rounded=0;whiteSpace=wrap;html=1;shadow=1;strokeColor=#000000;" parent="1" vertex="1">
          <mxGeometry x="206.5" y="735" width="327" height="30" as="geometry" />
        </mxCell>
        <mxCell id="yZ550P0sdeZeeuUyea0I-23" value="&lt;font style=&quot;font-size: 16px;&quot; face=&quot;Comic Neue&quot;&gt;Drug Data Collection&lt;/font&gt;" style="rounded=0;whiteSpace=wrap;html=1;shadow=1;strokeColor=#000000;" parent="1" vertex="1">
          <mxGeometry x="-84.87" y="665" width="194" height="30" as="geometry" />
        </mxCell>
      </root>
    </mxGraphModel>
  </diagram>
</mxfile>
